<?xml version="1.0" encoding="iso-8859-1"?>
<!-- Generator: Adobe Illustrator 19.0.0, SVG Export Plug-In . SVG Version: 6.00 Build 0)  -->
<svg version="1.1" id="Capa_1" xmlns="http://www.w3.org/2000/svg" xmlns:xlink="http://www.w3.org/1999/xlink" x="0px" y="0px"
	 width="169.41" height="48" viewBox="0 0 169.41 48"  xml:space="preserve">
<defs>
    <style>
      .cls-1 {
        fill: #1c77e6;
      }

      .cls-2 {
        fill: #263238;
      }

      .cls-2, .cls-3 {
        fill-rule: evenodd;
      }

      .cls-3 {
        fill: #fff;
      }
    </style>
  </defs>
  <rect id="rect" class="cls-1" width="73" height="48" rx="3" ry="3"/>
  <path id="Deco" class="cls-2" d="M2760.23,1046.82h-3.1v3.52l3.1,0.6v20.92l-3.1.6v3.51h13.11a12.033,12.033,0,0,0,8.81-3.4,11.706,11.706,0,0,0,3.46-8.75v-4.83a11.775,11.775,0,0,0-3.46-8.76,12.041,12.041,0,0,0-8.81-3.41h-10.01Zm9.71,4.5a6.081,6.081,0,0,1,4.93,2.13,8.3,8.3,0,0,1,1.78,5.5v4.87a8.355,8.355,0,0,1-1.78,5.54,6.073,6.073,0,0,1-4.93,2.12h-3.86v-20.16h3.86Zm30.7,24.35a11.8,11.8,0,0,0,3.48-1.78l-1.59-3.61a14.528,14.528,0,0,1-2.8,1.23,11.235,11.235,0,0,1-3.22.39,4.475,4.475,0,0,1-3.46-1.38,5.7,5.7,0,0,1-1.43-3.52l0.04-.12h12.94v-3.18a10.142,10.142,0,0,0-2.43-7.15,9.892,9.892,0,0,0-13.92.46,11.836,11.836,0,0,0-2.65,7.95v0.8a10.754,10.754,0,0,0,2.8,7.63,9.756,9.756,0,0,0,7.49,3A14.757,14.757,0,0,0,2800.64,1075.67Zm-2.64-16.15a4.685,4.685,0,0,1,.87,2.97v0.53h-7.17l-0.06-.11a6.587,6.587,0,0,1,1.16-3.26,3.054,3.054,0,0,1,2.57-1.24A3.14,3.14,0,0,1,2798,1059.52Zm16.23,10.61a9.928,9.928,0,0,1-.95-4.67v-0.6a9.256,9.256,0,0,1,1.03-4.65,3.681,3.681,0,0,1,3.5-1.8,3.921,3.921,0,0,1,1.46.25,3.749,3.749,0,0,1,1.08.63l0.96,3.38h4.75l-0.08-5.78a9.259,9.259,0,0,0-3.47-2.2,13.274,13.274,0,0,0-4.7-.78c-3.32,0-5.88,1.02-7.68,3.08a11.545,11.545,0,0,0-2.69,7.87v0.6a11.687,11.687,0,0,0,2.62,7.87,10.415,10.415,0,0,0,13.79.85,6.774,6.774,0,0,0,2.47-5.5l-0.06-.12h-5.29a3.209,3.209,0,0,1-.94,2.43A3.932,3.932,0,0,1,2814.23,1070.13Zm14.73-4.77a11.591,11.591,0,0,0,2.71,7.96,10.721,10.721,0,0,0,15.02,0,11.591,11.591,0,0,0,2.71-7.96v-0.42a11.564,11.564,0,0,0-2.71-7.95,10.684,10.684,0,0,0-15.02.01,11.59,11.59,0,0,0-2.71,7.94v0.42Zm5.85-.42a9.389,9.389,0,0,1,1.04-4.71,3.544,3.544,0,0,1,3.32-1.82,3.585,3.585,0,0,1,3.34,1.82,9.279,9.279,0,0,1,1.06,4.71v0.42a9.352,9.352,0,0,1-1.05,4.74,4,4,0,0,1-6.67.01,9.345,9.345,0,0,1-1.04-4.75v-0.42Z" transform="translate(-2680 -1038)"/>
  <path id="RV" class="cls-3" d="M2694.41,1046.82h-3.1v3.52l3.1,0.6v20.92l-3.1.6v3.51h12.07v-3.51l-3.13-.6v-7.68h4.79a4.321,4.321,0,0,1,3.19,1.27,4.668,4.668,0,0,1,1.13,3.33v1.66a6.491,6.491,0,0,0,1.16,3.99c0.78,1.02,2.12,1.54,4.03,1.54h3.02v-3.53l-0.72-.1a1.641,1.641,0,0,1-1.26-.63,2.542,2.542,0,0,1-.38-1.49v-1.48a8.023,8.023,0,0,0-1.13-4.39,6.325,6.325,0,0,0-3.72-2.54,8.188,8.188,0,0,0,3.47-2.62,6.35,6.35,0,0,0,1.18-3.82,7.63,7.63,0,0,0-2.82-6.28c-1.89-1.51-4.48-2.27-7.79-2.27h-9.99Zm5.84,4.5h4.15a4.954,4.954,0,0,1,3.57,1.17,4.173,4.173,0,0,1,1.21,3.14,3.694,3.694,0,0,1-1.22,3,5.53,5.53,0,0,1-3.66,1.04h-4.05v-8.35Zm27.65-4.5h-10.65v3.52l2.4,0.32,8.61,25.31h6.01l8.59-25.31,2.44-.32v-3.52h-10.65v3.52l2.2,0.4-5.19,17.52-0.34,1.56h-0.12l-0.36-1.6-5.16-17.48,2.22-.4v-3.52Z" transform="translate(-2680 -1038)"/>
</svg>
